<?xml version="1.0" standalone="no"?>
<!DOCTYPE svg PUBLIC "-//W3C//DTD SVG 20010904//EN"
 "http://www.w3.org/TR/2001/REC-SVG-20010904/DTD/svg10.dtd">
<svg version="1.0" xmlns="http://www.w3.org/2000/svg"
 width="1536.000000pt" height="1024.000000pt" viewBox="0 0 1536.000000 1024.000000"
 preserveAspectRatio="xMidYMid meet">

<g transform="translate(0.000000,1024.000000) scale(0.100000,-0.100000)"
fill="#000000" stroke="none">
<path d="M2410 7125 c-497 -68 -950 -343 -1211 -734 -258 -385 -348 -829 -258
-1281 93 -473 415 -894 880 -1148 394 -216 974 -263 1425 -117 133 44 349 157
464 243 354 266 584 630 655 1037 99 562 -122 1182 -555 1562 -387 339 -916
504 -1400 438z m-431 -972 c39 -86 241 -573 241 -582 0 -34 22 6 79 147 35 86
93 226 129 310 l64 152 202 -2 201 -3 3 -642 2 -643 -170 0 -170 0 -2 342 -3
341 -110 -261 -109 -262 -107 0 -106 0 -28 63 c-15 34 -65 150 -111 257 l-84
195 0 -337 0 -338 -165 0 -165 0 0 638 c0 351 3 642 7 645 3 4 93 7 198 7
l192 0 12 -27z m1650 -278 c267 -63 426 -294 390 -565 -34 -254 -247 -429
-521 -430 -160 0 -275 45 -379 149 -274 275 -151 745 221 845 72 19 209 20
289 1z"/>
<path d="M3410 5572 c-19 -10 -48 -38 -65 -61 -41 -58 -47 -155 -13 -220 49
-94 147 -133 243 -97 56 22 91 62 110 131 26 88 -2 179 -71 232 -49 37 -150
44 -204 15z"/>
<path d="M12475 6294 c-167 -61 -182 -294 -23 -375 148 -76 328 22 328 178 -1
153 -154 252 -305 197z"/>
<path d="M5015 6178 c-3 -7 -4 -348 -3 -758 l3 -745 207 -3 208 -2 2 432 3
433 48 -75 c26 -41 109 -173 185 -292 112 -178 141 -217 160 -217 23 -1 32 11
327 467 l80 123 3 -436 2 -435 210 0 210 0 0 760 0 760 -193 0 c-172 0 -196
-2 -209 -17 -13 -17 -326 -497 -393 -605 -32 -51 -40 -56 -49 -33 -3 8 -83
137 -179 287 -95 150 -186 294 -201 321 l-28 47 -194 0 c-147 0 -196 -3 -199
-12z"/>
<path d="M7353 5840 c-165 -19 -317 -98 -415 -216 -55 -67 -74 -101 -103 -189
-35 -101 -39 -255 -11 -350 59 -201 219 -350 433 -406 102 -26 306 -28 408 -5
215 51 381 205 440 410 23 80 23 232 1 311 -61 208 -212 361 -420 424 -79 24
-226 34 -333 21z m200 -331 c53 -14 110 -69 137 -132 32 -72 32 -186 0 -251
-84 -174 -353 -175 -430 -1 -61 136 -13 316 100 373 49 24 128 29 193 11z"/>
<path d="M8889 5839 c-83 -7 -168 -40 -229 -88 -59 -46 -59 -46 -57 6 l2 48
-192 3 -193 2 0 -570 0 -570 205 0 205 0 0 323 c0 184 5 341 11 367 21 92 89
150 177 150 88 0 151 -52 171 -140 6 -26 11 -184 11 -372 l0 -328 200 0 200 0
0 392 c0 329 -3 402 -16 457 -30 120 -80 194 -171 255 -87 57 -185 77 -324 65z"/>
<path d="M11380 5840 c-145 -18 -277 -75 -371 -159 -61 -55 -67 -37 60 -184
l83 -98 27 18 c125 83 182 103 290 103 117 0 199 -45 221 -120 5 -19 8 -35 6
-37 -2 -2 -45 3 -97 12 -403 65 -693 -92 -693 -375 0 -60 5 -86 25 -130 46
-98 143 -172 260 -199 68 -16 256 -13 324 4 33 9 88 32 123 50 34 19 65 35 67
35 2 0 7 -20 11 -45 l6 -45 189 0 189 0 0 368 c0 400 -6 455 -55 552 -57 112
-180 200 -328 235 -78 18 -252 26 -337 15z m303 -696 c33 -12 12 -99 -34 -143
-85 -81 -264 -94 -318 -24 -53 66 -5 145 106 173 40 10 216 6 246 -6z"/>
<path d="M13405 5843 c-68 -8 -174 -38 -234 -64 -55 -25 -201 -130 -201 -145
0 -6 173 -206 193 -222 13 -11 27 -5 84 31 86 56 147 77 226 77 82 0 130 -14
172 -51 31 -27 64 -94 52 -105 -3 -3 -45 2 -93 10 -307 54 -562 -36 -659 -231
-38 -76 -41 -191 -8 -265 28 -61 96 -134 153 -163 92 -47 152 -58 295 -53
l133 4 95 47 c52 26 98 47 101 47 3 0 6 -20 6 -45 l0 -45 196 0 196 0 -4 388
c-5 413 -7 431 -60 536 -48 94 -168 185 -288 220 -97 27 -262 41 -355 29z
m255 -694 c40 -8 50 -14 46 -27 -2 -10 -7 -30 -11 -46 -10 -48 -45 -87 -98
-112 -133 -61 -277 -27 -277 66 0 95 171 155 340 119z"/>
<path d="M10140 5821 c-64 -21 -113 -45 -156 -77 -17 -13 -34 -24 -37 -24 -4
0 -7 20 -7 45 l0 45 -195 0 -195 0 0 -570 0 -570 210 0 209 0 3 353 3 352 25
44 c36 63 68 84 139 89 75 5 135 -21 171 -75 l25 -36 3 -364 3 -363 209 0 210
0 0 367 c0 226 -4 392 -11 432 -30 172 -133 298 -287 350 -80 27 -241 28 -322
2z"/>
<path d="M12340 5240 l0 -570 210 0 210 0 0 570 0 570 -210 0 -210 0 0 -570z"/>
</g>
</svg>
